<?xml version="1.0" encoding="UTF-8"?>
<svg xmlns="http://www.w3.org/2000/svg" viewBox="-55 -55 3110.995263560408 1910" width="1200" height="1200" role="img" aria-labelledby="title desc">
  <title id="title">신촌 2F 층 안내도</title>
  <desc id="desc">현대백화점 공식 층별 안내 벡터 데이터를 정적 도면으로 변환했습니다.</desc>
  <rect x="-55" y="-55" width="3110.995263560408" height="1910" fill="#e7e8e6"/>
  <g><polygon points="528.15,339.68 528.15,1113.81 1330.78,1113.81 1330.78,339.68" fill="#ffffff" fill-opacity="1" stroke="#ffffff" stroke-width="1.5"/><polygon points="2164.00,96.31 344.00,96.05 344.00,0.00 104.00,0.00 104.00,96.01 0.00,96.00 0.00,280.00 104.00,280.00 104.00,1800.00 344.00,1800.00 344.00,280.00 2131.63,280.00 3001.00,586.64 2995.63,389.64" fill="#ffffff" fill-opacity="1" stroke="#ffffff" stroke-width="1.5"/><polygon points="2704.47,1151.14 2645.24,1026.83 2644.99,1026.72 2246.43,847.60 2032.90,949.35 2256.71,1418.68 2725.29,1195.39" fill="#ffffff" fill-opacity="1" stroke="#ffffff" stroke-width="1.5"/></g>
  <g><polygon points="528.15,414.24 528.15,483.42 680.31,483.39 680.09,414.24" fill="#dcdcdc" fill-opacity="1" stroke="#ffffff" stroke-width="1.5"/><polygon points="680.09,414.24 680.31,483.39 830.91,483.36 830.69,414.24" fill="#dcdcdc" fill-opacity="1" stroke="#ffffff" stroke-width="1.5"/><polygon points="1101.20,414.24 1101.32,483.31 1185.94,483.35 1185.82,414.23" fill="#dcdcdc" fill-opacity="1" stroke="#ffffff" stroke-width="1.5"/><polygon points="1185.82,414.23 1185.94,483.35 1234.81,483.53 1234.83,497.96 1330.78,497.70 1330.78,414.24" fill="#dcdcdc" fill-opacity="1" stroke="#ffffff" stroke-width="1.5"/><polygon points="749.03,360.95 749.03,390.95 779.03,390.95 779.03,360.95" fill="#73c7a4" fill-opacity="1" stroke="#ffffff" stroke-width="1.5"/><polygon points="849.48,360.94 849.48,390.94 879.48,390.94 879.48,360.94" fill="#73c7a4" fill-opacity="1" stroke="#ffffff" stroke-width="1.5"/><polygon points="528.15,792.60 528.15,945.48 638.29,945.33 638.29,792.43" fill="#dcdcdc" fill-opacity="1" stroke="#ffffff" stroke-width="1.5"/><polygon points="528.15,483.32 528.15,637.59 638.29,637.71 638.29,483.40" fill="#dcdcdc" fill-opacity="1" stroke="#ffffff" stroke-width="1.5"/><polygon points="528.15,637.59 528.15,792.60 638.29,792.43 638.29,637.71" fill="#dcdcdc" fill-opacity="1" stroke="#ffffff" stroke-width="1.5"/><polygon points="1234.83,497.96 1234.97,629.20 1330.78,629.25 1330.78,497.70" fill="#dcdcdc" fill-opacity="1" stroke="#ffffff" stroke-width="1.5"/><polygon points="1009.02,514.38 1009.03,590.04 1072.50,589.98 1072.65,514.38" fill="#dcdcdc" fill-opacity="1" stroke="#ffffff" stroke-width="1.5"/><polygon points="1093.28,569.65 1093.28,624.94 1147.33,624.94 1147.39,569.98" fill="#dcdcdc" fill-opacity="1" stroke="#ffffff" stroke-width="1.5"/><polygon points="1093.28,514.38 1093.28,569.65 1147.39,569.98 1147.46,514.38" fill="#dcdcdc" fill-opacity="1" stroke="#ffffff" stroke-width="1.5"/><polygon points="1164.68,569.96 1164.53,624.94 1218.82,624.94 1218.82,569.92" fill="#dcdcdc" fill-opacity="1" stroke="#ffffff" stroke-width="1.5"/><polygon points="1164.53,514.42 1164.68,569.96 1218.82,569.92 1218.82,514.38" fill="#dcdcdc" fill-opacity="1" stroke="#ffffff" stroke-width="1.5"/><polygon points="1235.02,673.17 1234.97,783.21 1330.78,783.14 1330.78,673.63" fill="#dcdcdc" fill-opacity="1" stroke="#ffffff" stroke-width="1.5"/><polygon points="1234.97,783.21 1235.22,855.81 1330.85,855.64 1330.78,783.14" fill="#dcdcdc" fill-opacity="1" stroke="#ffffff" stroke-width="1.5"/><polygon points="931.74,686.49 931.74,746.38 1039.28,746.38 1039.28,686.49" fill="#dcdcdc" fill-opacity="1" stroke="#ffffff" stroke-width="1.5"/><polygon points="820.83,686.49 820.83,746.38 931.74,746.38 931.74,686.49" fill="#dcdcdc" fill-opacity="1" stroke="#ffffff" stroke-width="1.5"/><polygon points="1097.38,699.23 1097.38,752.68 1155.14,752.68 1155.14,699.23" fill="#dcdcdc" fill-opacity="1" stroke="#ffffff" stroke-width="1.5"/><polygon points="1164.48,699.23 1164.59,752.68 1218.17,752.68 1218.17,699.23" fill="#dcdcdc" fill-opacity="1" stroke="#ffffff" stroke-width="1.5"/><polygon points="1096.90,804.09 1096.90,831.89 1155.02,831.89 1155.02,804.19" fill="#dcdcdc" fill-opacity="1" stroke="#ffffff" stroke-width="1.5"/><polygon points="1096.90,777.49 1096.90,804.09 1155.02,804.19 1155.02,777.43" fill="#dcdcdc" fill-opacity="1" stroke="#ffffff" stroke-width="1.5"/><polygon points="1164.62,777.46 1164.62,831.97 1218.17,831.76 1218.17,777.35" fill="#dcdcdc" fill-opacity="1" stroke="#ffffff" stroke-width="1.5"/><polygon points="681.52,1026.28 681.52,1054.01 803.18,1054.01 803.18,1026.28" fill="#e7d3e7" fill-opacity="1" stroke="#ffffff" stroke-width="1.5"/><polygon points="831.71,1032.79 831.71,1062.79 861.89,1062.79 861.78,1032.79" fill="#73c7a4" fill-opacity="1" stroke="#ffffff" stroke-width="1.5"/><polygon points="869.41,986.29 869.41,1016.37 899.34,1016.37 899.41,986.29" fill="#e7d3e7" fill-opacity="1" stroke="#ffffff" stroke-width="1.5"/><polygon points="869.61,1032.79 869.72,1062.79 899.54,1062.79 899.54,1032.79" fill="#73c7a4" fill-opacity="1" stroke="#ffffff" stroke-width="1.5"/><polygon points="577.14,1019.67 577.14,1049.67 607.14,1049.67 607.14,1019.67" fill="#73c7a4" fill-opacity="1" stroke="#ffffff" stroke-width="1.5"/><polygon points="929.71,656.98 929.71,673.57 1025.90,673.57 1025.90,657.12" fill="#73c7a4" fill-opacity="1" stroke="#ffffff" stroke-width="1.5"/><polygon points="929.75,641.10 929.71,656.98 1025.90,657.12 1025.90,641.10" fill="#73c7a4" fill-opacity="1" stroke="#ffffff" stroke-width="1.5"/><polygon points="831.71,656.83 831.71,673.57 929.71,673.57 929.75,656.98" fill="#73c7a4" fill-opacity="1" stroke="#ffffff" stroke-width="1.5"/><polygon points="831.71,641.10 831.71,656.83 929.71,656.98 929.75,641.10" fill="#73c7a4" fill-opacity="1" stroke="#ffffff" stroke-width="1.5"/><polygon points="989.29,590.14 793.67,590.14 793.67,514.38 989.29,514.38" fill="#dcdcdc" fill-opacity="1" stroke="#ffffff" stroke-width="1.5"/><polygon points="1330.78,932.97 1235.22,932.97 1235.22,855.81 1330.78,855.81" fill="#dcdcdc" fill-opacity="1" stroke="#ffffff" stroke-width="1.5"/><polygon points="1218.17,845.70 1096.90,845.70 1096.90,886.27 1218.17,886.27" fill="#dcdcdc" fill-opacity="1" stroke="#ffffff" stroke-width="1.5"/><polygon points="990.43,840.22 1063.77,840.22 1063.77,886.27 990.43,886.27" fill="#dcdcdc" fill-opacity="1" stroke="#ffffff" stroke-width="1.5"/><polygon points="917.09,840.22 990.43,840.22 990.43,886.27 917.09,886.27" fill="#dcdcdc" fill-opacity="1" stroke="#ffffff" stroke-width="1.5"/><polygon points="990.43,794.17 1063.77,794.17 1063.77,840.22 990.43,840.22" fill="#dcdcdc" fill-opacity="1" stroke="#ffffff" stroke-width="1.5"/><polygon points="917.09,794.17 990.43,794.17 990.43,840.22 917.09,840.22" fill="#dcdcdc" fill-opacity="1" stroke="#ffffff" stroke-width="1.5"/><polygon points="843.88,794.17 903.06,794.17 903.06,886.28 843.88,886.28" fill="#dcdcdc" fill-opacity="1" stroke="#ffffff" stroke-width="1.5"/><polygon points="778.76,794.17 843.88,794.17 843.88,886.27 778.76,886.27" fill="#dcdcdc" fill-opacity="1" stroke="#ffffff" stroke-width="1.5"/><polygon points="1330.78,1024.89 919.69,1024.89 919.69,932.97 1330.78,932.97" fill="#dcdcdc" fill-opacity="1" stroke="#ffffff" stroke-width="1.5"/><polygon points="721.47,910.30 721.47,1009.70 817.74,1009.70 817.74,976.01 863.78,976.01 863.78,910.30" fill="#dcdcdc" fill-opacity="1" stroke="#ffffff" stroke-width="1.5"/><polygon points="664.16,675.85 664.16,789.54 755.86,789.54 755.86,675.71" fill="#dcdcdc" fill-opacity="1" stroke="#ffffff" stroke-width="1.5"/><polygon points="2645.24,1026.83 2246.43,847.60 2244.95,846.93 2246.25,846.34 2646.26,1026.07 2646.97,1027.61" fill="#a1a1a1" fill-opacity="1" stroke="#a1a1a1" stroke-width="1.5"/><polygon points="2258.75,881.52 2231.62,894.31 2218.82,867.18 2245.96,854.38" fill="#73c7a4" fill-opacity="1" stroke="#ffffff" stroke-width="1.5"/><polygon points="2227.02,896.49 2199.88,909.28 2187.09,882.15 2214.22,869.35" fill="#73c7a4" fill-opacity="1" stroke="#ffffff" stroke-width="1.5"/><polygon points="2286.50,1390.75 2259.36,1403.54 2246.57,1376.41 2273.70,1363.61" fill="#73c7a4" fill-opacity="1" stroke="#ffffff" stroke-width="1.5"/><polygon points="2247.50,1308.06 2220.37,1320.86 2207.57,1293.73 2234.70,1280.93" fill="#73c7a4" fill-opacity="1" stroke="#ffffff" stroke-width="1.5"/><polygon points="2166.82,926.09 2139.69,938.88 2126.89,911.75 2154.02,898.95" fill="#73c7a4" fill-opacity="1" stroke="#ffffff" stroke-width="1.5"/><polygon points="2456.81,1052.38 2386.20,1086.03 2392.71,1099.68 2463.32,1066.04" fill="#73c7a4" fill-opacity="1" stroke="#ffffff" stroke-width="1.5"/><polygon points="2463.32,1066.04 2392.71,1099.68 2399.21,1113.30 2469.79,1079.67" fill="#73c7a4" fill-opacity="1" stroke="#ffffff" stroke-width="1.5"/><polygon points="2392.79,1099.68 2321.29,1133.75 2327.80,1147.37 2399.27,1113.31" fill="#73c7a4" fill-opacity="1" stroke="#ffffff" stroke-width="1.5"/><polygon points="2386.20,1085.98 2314.70,1120.05 2321.21,1133.71 2392.71,1099.63" fill="#73c7a4" fill-opacity="1" stroke="#ffffff" stroke-width="1.5"/><polygon points="2705.59,1150.61 2646.97,1027.61 2645.24,1026.83 2704.47,1151.14 2725.29,1195.39 2256.71,1418.68 2033.41,950.42 2032.90,949.35 2246.43,847.60 2244.95,846.93 2031.25,948.77 2032.30,950.95 2256.12,1420.32 2726.93,1195.97" fill="#a1a1a1" fill-opacity="1" stroke="#a1a1a1" stroke-width="1.5"/><polygon points="2398.58,923.83 2560.17,1265.27 2715.29,1190.67 2640.14,1032.39" fill="#dcdcdc" fill-opacity="1" stroke="#ffffff" stroke-width="1.5"/><polygon points="2511.33,1161.94 2346.13,1239.38 2317.89,1179.86 2239.06,1217.97 2316.24,1381.07 2560.17,1265.27" fill="#dcdcdc" fill-opacity="1" stroke="#ffffff" stroke-width="1.5"/><polygon points="1332.28,338.18 526.65,338.18 526.65,1115.31 530.45,1115.31 530.45,1113.81 528.15,1113.81 528.15,339.68 1330.78,339.68 1330.78,1113.81 530.45,1113.81 530.45,1115.31 1332.28,1115.31" fill="#a1a1a1" fill-opacity="1" stroke="#a1a1a1" stroke-width="1.5"/><polygon points="667.66,515.34 667.66,638.94 759.37,638.87 759.37,515.34" fill="#dcdcdc" fill-opacity="1" stroke="#ffffff" stroke-width="1.5"/><polygon points="664.99,789.66 664.99,882.42 756.69,882.42 756.69,789.54" fill="#dcdcdc" fill-opacity="1" stroke="#ffffff" stroke-width="1.5"/><polygon points="946.70,414.25 946.65,452.90 978.19,452.95 978.19,483.35 1076.77,483.35 1076.77,452.99 1076.77,448.78 1076.77,414.25" fill="#dcdcdc" fill-opacity="1" stroke="#ffffff" stroke-width="1.5"/><polygon points="866.13,414.24 866.13,483.35 978.04,483.35 978.04,453.05 946.55,453.05 946.55,414.25" fill="#dcdcdc" fill-opacity="1" stroke="#ffffff" stroke-width="1.5"/><polygon points="2180.72,965.51 2121.65,993.05 2181.31,1121.01 2240.39,1093.46" fill="#dcdcdc" fill-opacity="1" stroke="#ffffff" stroke-width="1.5"/><polygon points="2241.63,934.63 2182.55,962.18 2242.22,1090.13 2301.29,1062.59" fill="#dcdcdc" fill-opacity="1" stroke="#ffffff" stroke-width="1.5"/><polygon points="2301.96,903.76 2242.89,931.30 2302.56,1059.26 2361.63,1031.71" fill="#dcdcdc" fill-opacity="1" stroke="#ffffff" stroke-width="1.5"/><polygon points="2352.76,915.23 2305.92,903.08 2366.03,1027.61 2425.10,1000.06 2392.24,926.66" fill="#dcdcdc" fill-opacity="1" stroke="#ffffff" stroke-width="1.5"/></g>
  <g font-family="Arial, 'Noto Sans KR', sans-serif" font-size="12" font-weight="600" fill="#303633" stroke="#fff" stroke-width="3" paint-order="stroke" stroke-linejoin="round"><text x="742.7017925131967" y="1040.4379641796038" text-anchor="middle" dominant-baseline="central">커뮤니티라운지</text><text x="583.2196543491004" y="868.9552430298274" text-anchor="middle" dominant-baseline="central">론진 ㆍ 에르메스 ㆍ 박시</text><text x="583.2196886727756" y="715.0964033729822" text-anchor="middle" dominant-baseline="central">로레나 안토니아찌</text><text x="583.2197229036833" y="560.5151332246287" text-anchor="middle" dominant-baseline="central">플리츠플리즈</text><text x="604.2283937677676" y="448.83182375395586" text-anchor="middle" dominant-baseline="central">가이거</text><text x="755.4999012793523" y="448.8169801801919" text-anchor="middle" dominant-baseline="central">오일릴리</text><text x="707.9880842741055" y="837.7489883239441" text-anchor="middle" dominant-baseline="central">꼬메띠</text><text x="776.4393160104411" y="954.8284937483529" text-anchor="middle" dominant-baseline="central">샤리올 ㆍ 글라이신 ㆍ 크로노스…</text><text x="953.7607269287109" y="817.191131591797" text-anchor="middle" dominant-baseline="central">루즈앤라운지</text><text x="953.7607269287109" y="863.2428283691405" text-anchor="middle" dominant-baseline="central">쌤소나이트</text><text x="1027.098464965823" y="817.191131591797" text-anchor="middle" dominant-baseline="central">질스튜어트</text><text x="1027.098464965823" y="864.1450840082382" text-anchor="middle" dominant-baseline="central">루이까또즈 핸드백</text><text x="876.2825317557758" y="716.4324401602802" text-anchor="middle" dominant-baseline="central">판도라</text><text x="985.5102880538573" y="716.4324401602802" text-anchor="middle" dominant-baseline="central">제이에스티나</text><text x="1040.83709608937" y="552.2118537922225" text-anchor="middle" dominant-baseline="central">행사장</text><text x="904.5570371529622" y="448.7976837158205" text-anchor="middle" dominant-baseline="central">스와로 브스키</text><text x="1026.031566565584" y="449.070523136589" text-anchor="middle" dominant-baseline="central">그랜드세이코</text><text x="1143.571424665502" y="448.78700045024084" text-anchor="middle" dominant-baseline="central">골든구스</text><text x="1258.2994126052722" y="456.0936533124625" text-anchor="middle" dominant-baseline="central">페세리코</text><text x="1282.8029218939478" y="563.4760107827701" text-anchor="middle" dominant-baseline="central">골든듀</text><text x="1120.3362326654546" y="597.2914924549378" text-anchor="middle" dominant-baseline="central">비체</text><text x="1120.3684152148217" y="542.1793616537984" text-anchor="middle" dominant-baseline="central">스타일러스</text><text x="1191.6751812384668" y="597.4269977987836" text-anchor="middle" dominant-baseline="central">루첸리</text><text x="1124.8063781083133" y="723.9651672191735" text-anchor="middle" dominant-baseline="central">스톤헨지</text><text x="1191.325466023409" y="725.9537268636877" text-anchor="middle" dominant-baseline="central">디디에두보</text><text x="1124.827476182878" y="792.0042321630751" text-anchor="middle" dominant-baseline="central">앤나인</text><text x="1282.8750645157456" y="728.1890699916144" text-anchor="middle" dominant-baseline="central">스타몽뜨레 (페라가모/GC/ 아…</text><text x="1125.2369689941406" y="978.932556152344" text-anchor="middle" dominant-baseline="central">레이블스 수입 · 컨템포러리 편…</text><text x="1283.00048828125" y="893.3572782886973" text-anchor="middle" dominant-baseline="central">해밀턴 ㆍ 미도 ㆍ 티쏘</text><text x="1282.9083540911465" y="819.4790943384394" text-anchor="middle" dominant-baseline="central">쟝폴클라리쎄</text><text x="1157.2375822809609" y="865.6943302182002" text-anchor="middle" dominant-baseline="central">만다리나덕</text><text x="2556.9332491622554" y="1094.5488540208926" text-anchor="middle" dominant-baseline="central">오크베리</text><text x="2401.731938685705" y="1275.25203176701" text-anchor="middle" dominant-baseline="central">유니클로</text><text x="220" y="738" text-anchor="middle" dominant-baseline="central">신촌로</text><text x="1941" y="185" text-anchor="middle" dominant-baseline="central">연세로 5길</text><text x="1191.674607240223" y="542.1738109094846" text-anchor="middle" dominant-baseline="central">JJqueen</text><text x="891.7097350878427" y="551.0830278438971" text-anchor="middle" dominant-baseline="central">잡화 멀티샵 (양말/스타킹/모자…</text><text x="1125.1284005364291" y="818.9624463566516" text-anchor="middle" dominant-baseline="central">메트로시티 주얼리</text><text x="1191.3946876920304" y="804.6633975768151" text-anchor="middle" dominant-baseline="central">로이드 더 그레이스</text><text x="873.4673243750212" y="840.2266337412004" text-anchor="middle" dominant-baseline="central">닥스</text><text x="930.0678686184679" y="657.158734910956" text-anchor="middle" dominant-baseline="central">에스컬레이터</text><text x="2392.5801059337455" y="1099.2972441872844" text-anchor="middle" dominant-baseline="central">에스컬레이터</text><text x="592.1395552863623" y="1034.6663200854025" text-anchor="middle" dominant-baseline="central">엘리베이터</text><text x="846.7989198787293" y="1047.7854202702883" text-anchor="middle" dominant-baseline="central">비상구</text><text x="884.5709863035264" y="1047.7854202702883" text-anchor="middle" dominant-baseline="central">엘리베이터</text><text x="884.4067969285798" y="1001.3336270983901" text-anchor="middle" dominant-baseline="central">쓰레기통</text><text x="764.0268232012188" y="375.95020501678016" text-anchor="middle" dominant-baseline="central">화장실</text><text x="864.4801892880523" y="375.94019953146926" text-anchor="middle" dominant-baseline="central">비상구</text><text x="2146.85389921566" y="918.918873319062" text-anchor="middle" dominant-baseline="central">엘리베이터</text><text x="2205.9835614331905" y="890.011712761353" text-anchor="middle" dominant-baseline="central">비상구</text><text x="2241.7874287251834" y="873.6566193890654" text-anchor="middle" dominant-baseline="central">화장실</text><text x="2227.5344430099703" y="1300.89518425194" text-anchor="middle" dominant-baseline="central">비상구</text><text x="2266.5325410986397" y="1383.57893270241" text-anchor="middle" dominant-baseline="central">엘리베이터</text><text x="712.8944292948876" y="575.074405921305" text-anchor="middle" dominant-baseline="central">헬렌카민스키</text><text x="811.3172231416811" y="840.2169799804685" text-anchor="middle" dominant-baseline="central">POP-UP</text><text x="709.3736264427803" y="734.4720233484368" text-anchor="middle" dominant-baseline="central">POP-UP</text><text x="2181.017345186195" y="1043.257922719368" text-anchor="middle" dominant-baseline="central">스케쳐스</text><text x="2302.2606552686307" y="981.5077641905144" text-anchor="middle" dominant-baseline="central">아레나</text><text x="2366.069884957288" y="951.308590842495" text-anchor="middle" dominant-baseline="central">노스페이스 화이트라벨</text><text x="2241.9231156364176" y="1012.3828434549413" text-anchor="middle" dominant-baseline="central">나이키 스윔</text></g>

  <text x="0" y="-18" font-family="Arial, 'Noto Sans KR', sans-serif" font-size="20" font-weight="700" fill="#1a1f1d">신촌 · 2F</text>

</svg>
