<?xml version="1.0" encoding="UTF-8"?>
<svg xmlns="http://www.w3.org/2000/svg" viewBox="-55 -55 3111.3479697598987 1910" width="1200" height="1200" role="img" aria-labelledby="title desc">
  <title id="title">신촌 5F 층 안내도</title>
  <desc id="desc">현대백화점 공식 층별 안내 벡터 데이터를 정적 도면으로 변환했습니다.</desc>
  <rect x="-55" y="-55" width="3111.3479697598987" height="1910" fill="#e7e8e6"/>
  <g><polygon points="529.24,332.73 529.24,1104.90 1330.78,1104.90 1330.78,332.73" fill="#ffffff" fill-opacity="1" stroke="#ffffff" stroke-width="1.5"/><polygon points="2164.00,96.31 344.00,96.05 344.00,0.00 104.00,0.00 104.00,96.01 0.00,96.00 0.00,280.00 104.00,280.00 104.00,1800.00 344.00,1800.00 344.00,280.00 2131.63,280.00 2999.44,586.10 3001.35,391.66" fill="#ffffff" fill-opacity="1" stroke="#ffffff" stroke-width="1.5"/><polygon points="2032.37,947.39 2257.06,1418.02 2722.75,1195.20 2642.27,1025.79 2244.19,847.08" fill="#ffffff" fill-opacity="1" stroke="#ffffff" stroke-width="1.5"/></g>
  <g><polygon points="529.24,551.59 529.24,664.36 634.97,664.46 634.97,551.57" fill="#dcdcdc" fill-opacity="1" stroke="#ffffff" stroke-width="1.5"/><polygon points="1330.81,828.48 1242.79,828.48 1242.79,913.01 1330.81,913.01" fill="#dcdcdc" fill-opacity="1" stroke="#ffffff" stroke-width="1.5"/><polygon points="1330.78,981.76 1276.59,1007.08 1242.74,1007.08 1242.74,913.11 1330.78,913.11" fill="#dcdcdc" fill-opacity="1" stroke="#ffffff" stroke-width="1.5"/><polygon points="1330.78,743.91 1242.74,743.91 1242.74,828.44 1330.78,828.44" fill="#dcdcdc" fill-opacity="1" stroke="#ffffff" stroke-width="1.5"/><polygon points="1330.78,743.91 1242.74,743.91 1242.74,661.44 1330.78,661.44" fill="#dcdcdc" fill-opacity="1" stroke="#ffffff" stroke-width="1.5"/><polygon points="1330.78,578.84 1242.74,578.84 1242.74,661.44 1330.78,661.44" fill="#dcdcdc" fill-opacity="1" stroke="#ffffff" stroke-width="1.5"/><polygon points="1330.78,578.84 1242.74,578.84 1242.74,514.79 1330.78,514.79" fill="#dcdcdc" fill-opacity="1" stroke="#ffffff" stroke-width="1.5"/><polygon points="688.16,536.11 688.16,650.76 765.65,650.88 765.65,536.02" fill="#dcdcdc" fill-opacity="1" stroke="#ffffff" stroke-width="1.5"/><polygon points="948.96,820.43 948.83,896.71 1006.96,896.65 1006.96,820.51" fill="#dcdcdc" fill-opacity="1" stroke="#ffffff" stroke-width="1.5"/><polygon points="891.73,820.36 891.51,896.77 948.83,896.71 948.96,820.43" fill="#dcdcdc" fill-opacity="1" stroke="#ffffff" stroke-width="1.5"/><polygon points="912.96,532.97 912.96,616.46 1001.90,616.53 1001.90,532.97" fill="#dcdcdc" fill-opacity="1" stroke="#ffffff" stroke-width="1.5"/><polygon points="529.24,401.14 529.24,554.32 634.39,554.27 634.39,401.14" fill="#dcdcdc" fill-opacity="1" stroke="#ffffff" stroke-width="1.5"/><polygon points="529.24,861.15 529.24,980.79 578.33,980.79 634.97,930.45 634.97,861.25" fill="#dcdcdc" fill-opacity="1" stroke="#ffffff" stroke-width="1.5"/><polygon points="529.24,757.18 529.24,861.15 634.97,861.25 634.97,757.35" fill="#dcdcdc" fill-opacity="1" stroke="#ffffff" stroke-width="1.5"/><polygon points="529.24,665.73 529.24,757.27 634.97,757.35 634.97,665.71" fill="#dcdcdc" fill-opacity="1" stroke="#ffffff" stroke-width="1.5"/><polygon points="1078.73,415.23 1078.85,496.08 1240.25,496.08 1240.25,415.23" fill="#dcdcdc" fill-opacity="1" stroke="#ffffff" stroke-width="1.5"/><polygon points="634.97,401.33 634.97,496.34 796.97,496.08 796.76,401.14" fill="#dcdcdc" fill-opacity="1" stroke="#ffffff" stroke-width="1.5"/><polygon points="830.50,401.14 830.50,496.08 983.28,496.08 983.11,401.14" fill="#dcdcdc" fill-opacity="1" stroke="#ffffff" stroke-width="1.5"/><polygon points="983.11,415.23 983.26,496.08 1058.15,496.08 1058.03,415.23" fill="#dcdcdc" fill-opacity="1" stroke="#ffffff" stroke-width="1.5"/><polygon points="1149.91,820.07 1149.70,896.71 1199.31,896.71 1199.31,820.07" fill="#dcdcdc" fill-opacity="1" stroke="#ffffff" stroke-width="1.5"/><polygon points="1012.49,932.78 1012.49,1088.79 1166.08,1088.79 1166.09,932.78" fill="#e7d3e7" fill-opacity="1" stroke="#ffffff" stroke-width="1.5"/><polygon points="912.96,935.17 912.96,1002.76 996.49,1002.76 996.49,935.17" fill="#dcdcdc" fill-opacity="1" stroke="#ffffff" stroke-width="1.5"/><polygon points="671.44,1095.21 680.99,1104.90 769.57,1104.90 769.36,1034.60 691.73,1034.80 691.35,1077.70 671.36,1077.66" fill="#dcdcdc" fill-opacity="1" stroke="#ffffff" stroke-width="1.5"/><polygon points="840.20,1025.23 840.20,1055.23 870.20,1055.23 870.20,1025.23" fill="#73c7a4" fill-opacity="1" stroke="#ffffff" stroke-width="1.5"/><polygon points="804.30,1025.13 804.30,1055.13 834.30,1055.13 834.30,1025.13" fill="#73c7a4" fill-opacity="1" stroke="#ffffff" stroke-width="1.5"/><polygon points="576.09,1025.53 576.09,1055.53 606.09,1055.53 606.09,1025.53" fill="#73c7a4" fill-opacity="1" stroke="#ffffff" stroke-width="1.5"/><polygon points="795.76,350.68 795.76,380.68 825.75,380.67 825.75,350.67" fill="#73c7a4" fill-opacity="1" stroke="#ffffff" stroke-width="1.5"/><polygon points="758.76,351.08 758.76,381.08 788.76,381.08 788.76,351.08" fill="#73c7a4" fill-opacity="1" stroke="#ffffff" stroke-width="1.5"/><polygon points="914.96,685.82 915.04,702.03 915.04,702.03 1003.68,702.03 1003.68,685.88" fill="#73c7a4" fill-opacity="1" stroke="#ffffff" stroke-width="1.5"/><polygon points="915.12,670.22 914.96,685.82 1003.68,685.88 1003.68,670.22" fill="#73c7a4" fill-opacity="1" stroke="#ffffff" stroke-width="1.5"/><polygon points="827.16,685.76 827.16,702.03 915.04,702.03 914.96,685.82" fill="#73c7a4" fill-opacity="1" stroke="#ffffff" stroke-width="1.5"/><polygon points="827.16,670.22 827.16,685.76 914.96,685.82 915.12,670.22 915.12,670.22" fill="#73c7a4" fill-opacity="1" stroke="#ffffff" stroke-width="1.5"/><polygon points="1054.43,532.97 1054.43,616.32 1187.57,616.53 1187.57,532.97" fill="#dcdcdc" fill-opacity="1" stroke="#ffffff" stroke-width="1.5"/><polygon points="830.06,532.97 829.96,616.52 913.02,616.46 913.02,532.97" fill="#dcdcdc" fill-opacity="1" stroke="#ffffff" stroke-width="1.5"/><polygon points="1050.09,820.09 1050.09,896.74 1099.42,896.74 1099.42,820.09" fill="#dcdcdc" fill-opacity="1" stroke="#ffffff" stroke-width="1.5"/><polygon points="1099.42,820.09 1099.42,896.74 1149.52,896.74 1149.71,820.09" fill="#dcdcdc" fill-opacity="1" stroke="#ffffff" stroke-width="1.5"/><polygon points="836.73,820.29 836.73,896.82 891.51,896.77 891.73,820.36" fill="#dcdcdc" fill-opacity="1" stroke="#ffffff" stroke-width="1.5"/><polygon points="719.39,935.24 719.39,1002.83 835.69,1002.83 835.69,935.24" fill="#dcdcdc" fill-opacity="1" stroke="#ffffff" stroke-width="1.5"/><polygon points="688.63,782.93 688.63,866.74 764.65,866.63 764.81,782.87" fill="#dcdcdc" fill-opacity="1" stroke="#ffffff" stroke-width="1.5"/><polygon points="688.63,702.35 688.63,782.93 764.81,782.87 764.97,702.50" fill="#dcdcdc" fill-opacity="1" stroke="#ffffff" stroke-width="1.5"/><polygon points="1117.82,717.30 1117.79,786.19 1188.12,786.38 1188.12,717.10" fill="#dcdcdc" fill-opacity="1" stroke="#ffffff" stroke-width="1.5"/><polygon points="1053.54,649.24 1053.54,786.03 1117.79,786.19 1117.85,649.24" fill="#dcdcdc" fill-opacity="1" stroke="#ffffff" stroke-width="1.5"/><polygon points="1117.85,649.24 1117.82,717.30 1188.12,717.10 1188.12,649.24" fill="#dcdcdc" fill-opacity="1" stroke="#ffffff" stroke-width="1.5"/><polygon points="915.78,711.00 1001.32,711.00 1001.32,786.13 915.78,786.13" fill="#dcdcdc" fill-opacity="1" stroke="#ffffff" stroke-width="1.5"/><polygon points="830.23,711.00 915.78,711.00 915.78,786.13 830.23,786.13" fill="#dcdcdc" fill-opacity="1" stroke="#ffffff" stroke-width="1.5"/><polygon points="2227.02,896.49 2199.88,909.28 2187.09,882.15 2214.22,869.35" fill="#73c7a4" fill-opacity="1" stroke="#ffffff" stroke-width="1.5"/><polygon points="2286.50,1390.75 2259.36,1403.54 2246.57,1376.41 2273.70,1363.61" fill="#73c7a4" fill-opacity="1" stroke="#ffffff" stroke-width="1.5"/><polygon points="2247.50,1308.06 2220.37,1320.86 2207.57,1293.73 2234.70,1280.93" fill="#73c7a4" fill-opacity="1" stroke="#ffffff" stroke-width="1.5"/><polygon points="2166.82,926.09 2139.69,938.88 2126.89,911.75 2154.02,898.95" fill="#73c7a4" fill-opacity="1" stroke="#ffffff" stroke-width="1.5"/><polygon points="2462.47,1057.23 2391.87,1090.87 2398.37,1104.53 2468.98,1070.88" fill="#73c7a4" fill-opacity="1" stroke="#ffffff" stroke-width="1.5"/><polygon points="2468.98,1070.88 2398.37,1104.53 2404.88,1118.15 2475.45,1084.52" fill="#73c7a4" fill-opacity="1" stroke="#ffffff" stroke-width="1.5"/><polygon points="2398.50,1104.47 2327.00,1138.54 2333.50,1152.16 2404.97,1118.10" fill="#73c7a4" fill-opacity="1" stroke="#ffffff" stroke-width="1.5"/><polygon points="2391.99,1090.81 2320.49,1124.89 2327.00,1138.54 2398.50,1104.47" fill="#73c7a4" fill-opacity="1" stroke="#ffffff" stroke-width="1.5"/><polygon points="2389.19,980.74 2431.10,1054.71 2560.68,995.92 2460.38,950.84" fill="#dcdcdc" fill-opacity="1" stroke="#ffffff" stroke-width="1.5"/><polygon points="2615.43,1020.59 2490.81,1079.95 2570.87,1247.96 2707.47,1182.86 2637.98,1030.85" fill="#dcdcdc" fill-opacity="1" stroke="#ffffff" stroke-width="1.5"/><polygon points="2444.71,1123.33 2226.63,1224.65 2298.92,1377.55 2517.00,1273.63" fill="#dcdcdc" fill-opacity="1" stroke="#ffffff" stroke-width="1.5"/><polygon points="2391.08,920.41 2133.55,1033.42 2226.63,1224.64 2323.73,1179.54 2295.14,1120.30 2431.10,1054.71 2389.19,980.78 2460.38,950.84" fill="#dcdcdc" fill-opacity="1" stroke="#ffffff" stroke-width="1.5"/><polygon points="2643.23,1024.90 2642.31,1025.83 2722.75,1195.20 2257.06,1418.02 2032.37,947.39 2244.19,847.08 2244.18,845.74 2030.73,946.81 2256.48,1419.65 2724.38,1195.78" fill="#a1a1a1" fill-opacity="1" stroke="#a1a1a1" stroke-width="1.5"/><polygon points="2244.19,847.08 2244.18,845.74 2643.23,1024.90 2642.31,1025.83" fill="#a1a1a1" fill-opacity="1" stroke="#a1a1a1" stroke-width="1.5"/><polygon points="527.74,331.23 527.74,1106.40 533.43,1106.40 533.43,1104.90 529.24,1104.90 529.24,332.73 1330.78,332.73 1330.78,1104.90 533.43,1104.90 533.43,1106.40 1332.28,1106.40 1332.28,331.23" fill="#a1a1a1" fill-opacity="1" stroke="#a1a1a1" stroke-width="1.5"/></g>
  <g font-family="Arial, 'Noto Sans KR', sans-serif" font-size="12" font-weight="600" fill="#303633" stroke="#fff" stroke-width="3" paint-order="stroke" stroke-linejoin="round"><text x="581.9757817643733" y="479.526814953543" text-anchor="middle" dominant-baseline="central">김연주</text><text x="580.8086812670311" y="712.3753049717579" text-anchor="middle" dominant-baseline="central">앤디앤뎁</text><text x="582.1064462273778" y="809.2176086074323" text-anchor="middle" dominant-baseline="central">비비안 바바라</text><text x="579.1263137770464" y="916.4986565468967" text-anchor="middle" dominant-baseline="central">트라이엄프</text><text x="715.9725894433316" y="448.7397353411343" text-anchor="middle" dominant-baseline="central">르베이지</text><text x="726.9071676200579" y="593.446018272546" text-anchor="middle" dominant-baseline="central">손정완</text><text x="725.5414224535697" y="745.168980118915" text-anchor="middle" dominant-baseline="central">PS at 5</text><text x="726.7238900480966" y="824.8061524270379" text-anchor="middle" dominant-baseline="central">MOE</text><text x="906.8905411876844" y="448.61170644221136" text-anchor="middle" dominant-baseline="central">쁘렝땅</text><text x="1020.6291277514391" y="455.65329588298323" text-anchor="middle" dominant-baseline="central">요이츠</text><text x="1159.4919074820673" y="455.65329588298323" text-anchor="middle" dominant-baseline="central">디루치아노</text><text x="871.4898890682584" y="574.7476073735107" text-anchor="middle" dominant-baseline="central">이새</text><text x="1152.9706393647932" y="683.2712497964521" text-anchor="middle" dominant-baseline="central">캐리스노트</text><text x="1121.5385556370677" y="574.7542051522275" text-anchor="middle" dominant-baseline="central">행사장</text><text x="872.3399365930247" y="748.5680797909422" text-anchor="middle" dominant-baseline="central">안지크</text><text x="957.793967622734" y="750.1993725360201" text-anchor="middle" dominant-baseline="central">엠씨</text><text x="864.228443964693" y="858.5570764940921" text-anchor="middle" dominant-baseline="central">BCBG</text><text x="977.8941162441394" y="858.5723786805745" text-anchor="middle" dominant-baseline="central">요하넥스</text><text x="920.2322831590357" y="858.5647939343376" text-anchor="middle" dominant-baseline="central">더레노마</text><text x="1152.9556591546982" y="751.7391382615359" text-anchor="middle" dominant-baseline="central">정호진</text><text x="957.4277372162001" y="574.7542051522273" text-anchor="middle" dominant-baseline="central">플리츠미</text><text x="1286.7315690063" y="785.9775438668296" text-anchor="middle" dominant-baseline="central">리본</text><text x="1286.759942356613" y="702.6445600560287" text-anchor="middle" dominant-baseline="central">벨리시앙</text><text x="1286.7884059286455" y="618.8482943413305" text-anchor="middle" dominant-baseline="central">크레송</text><text x="1288.2079689461161" y="546.8129521266428" text-anchor="middle" dominant-baseline="central">시스막스</text><text x="954.7223805920621" y="968.961857266094" text-anchor="middle" dominant-baseline="central">아이잗바바</text><text x="778.8352431176833" y="969.0368740210222" text-anchor="middle" dominant-baseline="central">비너스 와코루</text><text x="1089.2866955027016" y="1010.7863783624869" text-anchor="middle" dominant-baseline="central">쟈스민 블랙 라운지</text><text x="1085.6944179742788" y="717.7168840160596" text-anchor="middle" dominant-baseline="central">앤클라인</text><text x="2285.36200578206" y="1055.3667363987788" text-anchor="middle" dominant-baseline="central">원더플레이스</text><text x="2464.0764837272563" y="992.5999542465089" text-anchor="middle" dominant-baseline="central">마인드브릿지</text><text x="2602.8052978515652" y="1132.692993164065" text-anchor="middle" dominant-baseline="central">지오다노</text><text x="220" y="738" text-anchor="middle" dominant-baseline="central">신촌로</text><text x="1941" y="185" text-anchor="middle" dominant-baseline="central">연세로 5길</text><text x="727.2425063743696" y="1071.200054561399" text-anchor="middle" dominant-baseline="central">파로 (패션 가발)</text><text x="1174.5057341394088" y="858.3886465460135" text-anchor="middle" dominant-baseline="central">모라도</text><text x="1124.566272889811" y="858.4127745400854" text-anchor="middle" dominant-baseline="central">소고 트리아나</text><text x="1074.753791815177" y="858.4127745400854" text-anchor="middle" dominant-baseline="central">벨라디 터치</text><text x="1285.5795790593875" y="953.4377198771095" text-anchor="middle" dominant-baseline="central">데시데</text><text x="2375.175389956155" y="1256.77860639702" text-anchor="middle" dominant-baseline="central">폴햄</text><text x="2398.276686090809" y="1104.26322486584" text-anchor="middle" dominant-baseline="central">에스컬레이터</text><text x="916.0072109910661" y="686.1757859703794" text-anchor="middle" dominant-baseline="central">에스컬레이터</text><text x="591.0943816456975" y="1040.5339547977212" text-anchor="middle" dominant-baseline="central">엘리베이터</text><text x="819.2991356976236" y="1040.12942872427" text-anchor="middle" dominant-baseline="central">비상구</text><text x="855.1997746615489" y="1040.231691760996" text-anchor="middle" dominant-baseline="central">엘리베이터</text><text x="810.7593710746382" y="365.6737712252003" text-anchor="middle" dominant-baseline="central">비상구</text><text x="773.7644880348926" y="366.0757956790784" text-anchor="middle" dominant-baseline="central">여자화장실</text><text x="2207.05226914771" y="889.3172335373" text-anchor="middle" dominant-baseline="central">비상구</text><text x="2146.85389921566" y="918.918873319062" text-anchor="middle" dominant-baseline="central">엘리베이터</text><text x="2227.5344430099703" y="1300.89518425194" text-anchor="middle" dominant-baseline="central">비상구</text><text x="2266.5325410986397" y="1383.57893270241" text-anchor="middle" dominant-baseline="central">엘리베이터</text><text x="1287.3435410888903" y="868.1312469314364" text-anchor="middle" dominant-baseline="central">펠리체조수니</text><text x="581.0308323880912" y="608.2918874107768" text-anchor="middle" dominant-baseline="central">이따리아나</text></g>

  <text x="0" y="-18" font-family="Arial, 'Noto Sans KR', sans-serif" font-size="20" font-weight="700" fill="#1a1f1d">신촌 · 5F</text>

</svg>
