<?xml version="1.0" encoding="UTF-8"?>
<svg xmlns="http://www.w3.org/2000/svg" viewBox="-53.52044677734375 -52.45111083984375 2102.6967163085938 2064.6530151367238" width="1200" height="1200" role="img" aria-labelledby="title desc">
  <title id="title">킨텍스 B3 층 안내도</title>
  <desc id="desc">현대백화점 공식 층별 안내 벡터 데이터를 정적 도면으로 변환했습니다.</desc>
  <rect x="-53.52044677734375" y="-52.45111083984375" width="2102.6967163085938" height="2064.6530151367238" fill="#e7e8e6"/>
  <g><polygon points="1941.23,1793.55 1941.23,2.55 1810.28,2.55 1810.28,1793.55 203.64,1793.55 203.64,2.55 72.69,2.55 72.69,1793.55 1.48,1793.55 1.48,1957.20 1994.18,1957.20 1994.18,1793.55" fill="#f8f8f8" fill-opacity="1" stroke="#f8f8f8" stroke-width="1.5"/><polygon points="375.09,327.99 375.09,1672.01 1624.91,1672.01 1624.91,327.99" fill="#ffffff" fill-opacity="1" stroke="#ffffff" stroke-width="1.5"/></g>
  <g><polygon points="1624.91,332.29 1624.91,1672.01 375.09,1672.01 375.09,327.99 1624.91,327.99 1624.91,332.29 1626.41,332.29 1626.41,326.49 373.59,326.49 373.59,1673.51 1626.41,1673.51 1626.41,332.29" fill="#a1a1a1" fill-opacity="1" stroke="#a1a1a1" stroke-width="1.5"/><polygon points="1624.91,1672.01 375.09,1672.01 375.09,327.99 1624.91,327.99" fill="#ffffff" fill-opacity="1" stroke="#ffffff" stroke-width="1.5"/></g>
  <g font-family="Arial, 'Noto Sans KR', sans-serif" font-size="12" font-weight="600" fill="#303633" stroke="#fff" stroke-width="3" paint-order="stroke" stroke-linejoin="round"><text x="1875" y="970" text-anchor="middle" dominant-baseline="central">킨텍스로</text><text x="1008" y="1870" text-anchor="middle" dominant-baseline="central">호수로</text><text x="1000" y="1000" text-anchor="middle" dominant-baseline="central">주차장</text></g>
  <text x="1.47955322265625" y="-15.45111083984375" font-family="Arial, 'Noto Sans KR', sans-serif" font-size="20" font-weight="700" fill="#1a1f1d">킨텍스 · B3</text>
</svg>
