<?xml version="1.0" encoding="UTF-8"?>
<svg xmlns="http://www.w3.org/2000/svg" viewBox="-55 257.603454589844 2110 1648.806403844106" width="1200" height="1200" role="img" aria-labelledby="title desc">
  <title id="title">대구 6F 층 안내도</title>
  <desc id="desc">현대백화점 공식 층별 안내 벡터 데이터를 정적 도면으로 변환했습니다.</desc>
  <rect x="-55" y="257.603454589844" width="2110" height="1648.806403844106" fill="#e7e8e6"/>
  <g><polygon points="2000.00,1851.41 0.00,1851.41 0.00,1634.75 2000.00,1634.75" fill="#f8f8f8" fill-opacity="1" stroke="#f8f8f8" stroke-width="1.5"/><polygon points="272.24,314.10 272.24,1481.89 1674.24,1481.89 1674.24,314.10" fill="#ffffff" fill-opacity="1" stroke="#ffffff" stroke-width="1.5"/></g>
  <g><polygon points="788.39,939.68 788.39,997.71 902.76,997.71 902.76,939.68" fill="#dcdcdc" fill-opacity="1" stroke="#ffffff" stroke-width="1.5"/><polygon points="788.39,772.46 788.39,856.96 902.76,856.96 902.76,772.46" fill="#dcdcdc" fill-opacity="1" stroke="#ffffff" stroke-width="1.5"/><polygon points="1233.42,1318.00 1233.42,1426.68 1323.28,1426.68 1323.28,1318.00" fill="#dcdcdc" fill-opacity="1" stroke="#ffffff" stroke-width="1.5"/><polygon points="1398.06,632.14 1398.06,721.94 1243.00,721.94 1243.00,696.02 1179.98,696.02 1199.07,632.14" fill="#dcdcdc" fill-opacity="1" stroke="#ffffff" stroke-width="1.5"/><polygon points="1287.18,314.10 1394.00,314.10 1394.00,496.63 1287.18,496.63" fill="#dcdcdc" fill-opacity="1" stroke="#ffffff" stroke-width="1.5"/><polygon points="1180.36,314.10 1287.18,314.10 1287.18,496.63 1180.36,496.63" fill="#dcdcdc" fill-opacity="1" stroke="#ffffff" stroke-width="1.5"/><polygon points="1073.54,314.10 1180.36,314.10 1180.36,496.63 1073.54,496.63" fill="#dcdcdc" fill-opacity="1" stroke="#ffffff" stroke-width="1.5"/><polygon points="966.73,314.10 1073.54,314.10 1073.54,496.63 966.73,496.63" fill="#dcdcdc" fill-opacity="1" stroke="#ffffff" stroke-width="1.5"/><polygon points="859.91,314.10 966.73,314.10 966.73,496.63 859.91,496.63" fill="#dcdcdc" fill-opacity="1" stroke="#ffffff" stroke-width="1.5"/><polygon points="753.09,314.10 859.91,314.10 859.91,496.63 753.09,496.63" fill="#dcdcdc" fill-opacity="1" stroke="#ffffff" stroke-width="1.5"/><polygon points="611.30,1317.94 611.30,1426.64 689.77,1426.64 689.77,1317.94" fill="#dcdcdc" fill-opacity="1" stroke="#ffffff" stroke-width="1.5"/><polygon points="689.77,1317.94 689.77,1426.64 768.24,1426.64 768.24,1317.94" fill="#dcdcdc" fill-opacity="1" stroke="#ffffff" stroke-width="1.5"/><polygon points="768.24,1317.99 768.24,1426.69 859.37,1426.69 859.37,1317.99" fill="#dcdcdc" fill-opacity="1" stroke="#ffffff" stroke-width="1.5"/><polygon points="859.37,1318.03 859.37,1426.73 1051.61,1426.73 1051.61,1318.03" fill="#dcdcdc" fill-opacity="1" stroke="#ffffff" stroke-width="1.5"/><polygon points="1052.83,1318.03 1052.83,1426.73 1224.00,1426.73 1224.00,1318.03" fill="#dcdcdc" fill-opacity="1" stroke="#ffffff" stroke-width="1.5"/><polygon points="964.13,1106.18 929.28,1269.66 1174.01,1268.83 1140.51,1105.49" fill="#dcdcdc" fill-opacity="1" stroke="#ffffff" stroke-width="1.5"/><polygon points="1396.35,1179.47 1396.35,1079.37 1292.03,1079.37 1292.03,1179.47" fill="#dcdcdc" fill-opacity="1" stroke="#ffffff" stroke-width="1.5"/><polygon points="1292.03,1079.37 1267.43,1079.37 1267.43,1104.88 1182.73,1104.88 1217.63,1279.56 1292.03,1279.56 1292.03,1179.47" fill="#dcdcdc" fill-opacity="1" stroke="#ffffff" stroke-width="1.5"/><polygon points="1396.35,1179.47 1292.03,1179.47 1292.03,1279.56 1396.35,1279.56" fill="#dcdcdc" fill-opacity="1" stroke="#ffffff" stroke-width="1.5"/><polygon points="1396.77,944.68 1264.39,944.68 1264.39,1035.48 1396.77,1035.48" fill="#dcdcdc" fill-opacity="1" stroke="#ffffff" stroke-width="1.5"/><polygon points="1589.37,518.77 1441.41,518.77 1441.41,627.23 1589.37,627.23" fill="#dcdcdc" fill-opacity="1" stroke="#ffffff" stroke-width="1.5"/><polygon points="1506.77,1224.22 1441.41,1224.22 1441.41,1279.56 1589.37,1279.56 1589.37,1188.42 1506.77,1188.42" fill="#e7d3e7" fill-opacity="1" stroke="#ffffff" stroke-width="1.5"/><polygon points="1441.41,1036.28 1589.37,1036.28 1589.37,950.71 1441.41,950.71" fill="#dcdcdc" fill-opacity="1" stroke="#ffffff" stroke-width="1.5"/><polygon points="1589.37,627.23 1441.41,627.23 1441.41,824.88 1589.37,824.88" fill="#dcdcdc" fill-opacity="1" stroke="#ffffff" stroke-width="1.5"/><polygon points="753.09,314.10 556.75,314.10 556.75,496.63 753.09,496.63" fill="#e7d3e7" fill-opacity="1" stroke="#ffffff" stroke-width="1.5"/><polygon points="1494.75,472.38 1428.62,472.38 1428.62,406.24 1494.75,406.24" fill="#73c7a4" fill-opacity="1" stroke="#ffffff" stroke-width="1.5"/><polygon points="346.38,1443.15 280.25,1443.15 280.25,1377.01 346.38,1377.01" fill="#73c7a4" fill-opacity="1" stroke="#ffffff" stroke-width="1.5"/><polygon points="1168.37,772.46 1141.42,772.46 1141.42,900.97 1168.37,900.97" fill="#73c7a4" fill-opacity="1" stroke="#ffffff" stroke-width="1.5"/><polygon points="1141.42,900.97 1141.42,1021.26 1168.37,1021.26 1168.37,900.97" fill="#73c7a4" fill-opacity="1" stroke="#ffffff" stroke-width="1.5"/><polygon points="1195.32,900.97 1195.32,772.46 1168.37,772.46 1168.37,900.97" fill="#73c7a4" fill-opacity="1" stroke="#ffffff" stroke-width="1.5"/><polygon points="1168.37,900.97 1168.37,1021.26 1195.32,1021.26 1195.32,900.97" fill="#73c7a4" fill-opacity="1" stroke="#ffffff" stroke-width="1.5"/><polygon points="956.28,772.46 929.52,772.46 929.52,900.97 956.28,900.97" fill="#73c7a4" fill-opacity="1" stroke="#ffffff" stroke-width="1.5"/><polygon points="929.52,1021.26 956.28,1021.26 956.28,900.97 929.52,900.97" fill="#73c7a4" fill-opacity="1" stroke="#ffffff" stroke-width="1.5"/><polygon points="929.52,772.46 902.76,772.46 902.76,900.97 929.52,900.97" fill="#73c7a4" fill-opacity="1" stroke="#ffffff" stroke-width="1.5"/><polygon points="902.76,900.97 902.76,1021.26 929.52,1021.26 929.52,900.97" fill="#73c7a4" fill-opacity="1" stroke="#ffffff" stroke-width="1.5"/><polygon points="1586.87,421.91 1520.74,421.91 1520.74,355.77 1586.87,355.77" fill="#73c7a4" fill-opacity="1" stroke="#ffffff" stroke-width="1.5"/><polygon points="1670.32,1481.17 1604.18,1481.17 1604.18,1415.04 1670.32,1415.04" fill="#73c7a4" fill-opacity="1" stroke="#ffffff" stroke-width="1.5"/><polygon points="488.50,1479.53 422.36,1479.53 422.36,1413.39 488.50,1413.39" fill="#73c7a4" fill-opacity="1" stroke="#ffffff" stroke-width="1.5"/><polygon points="346.38,1351.71 280.25,1351.71 280.25,1285.57 346.38,1285.57" fill="#73c7a4" fill-opacity="1" stroke="#ffffff" stroke-width="1.5"/><polygon points="574.11,1450.97 507.97,1450.97 507.97,1384.83 574.11,1384.83" fill="#73c7a4" fill-opacity="1" stroke="#ffffff" stroke-width="1.5"/><polygon points="427.08,1351.71 360.94,1351.71 360.94,1285.57 427.08,1285.57" fill="#73c7a4" fill-opacity="1" stroke="#ffffff" stroke-width="1.5"/><polygon points="1264.39,769.84 1264.39,861.57 1396.77,861.57 1396.77,769.84" fill="#dcdcdc" fill-opacity="1" stroke="#ffffff" stroke-width="1.5"/><polygon points="1264.39,861.57 1264.39,944.68 1396.77,944.68 1396.77,861.57" fill="#dcdcdc" fill-opacity="1" stroke="#ffffff" stroke-width="1.5"/><polygon points="1441.41,950.71 1589.37,950.71 1589.37,827.69 1441.41,827.69" fill="#dcdcdc" fill-opacity="1" stroke="#ffffff" stroke-width="1.5"/><polygon points="1073.38,544.95 1073.38,694.21 1017.80,694.21 970.43,544.95" fill="#dcdcdc" fill-opacity="1" stroke="#ffffff" stroke-width="1.5"/><polygon points="1176.34,544.92 1135.64,694.17 1073.38,694.17 1073.38,544.92" fill="#dcdcdc" fill-opacity="1" stroke="#ffffff" stroke-width="1.5"/><polygon points="1199.07,632.14 1221.67,547.81 1398.06,547.81 1398.06,632.14" fill="#dcdcdc" fill-opacity="1" stroke="#ffffff" stroke-width="1.5"/><polygon points="459.10,532.11 459.10,891.99 737.03,891.99 737.03,532.11" fill="#dcdcdc" fill-opacity="1" stroke="#ffffff" stroke-width="1.5"/><polygon points="459.02,891.99 459.02,1251.94 736.95,1251.94 736.95,891.99" fill="#dcdcdc" fill-opacity="1" stroke="#ffffff" stroke-width="1.5"/><polygon points="788.39,856.96 788.39,939.68 902.76,939.68 902.76,856.96" fill="#dcdcdc" fill-opacity="1" stroke="#ffffff" stroke-width="1.5"/><polygon points="788.14,700.20 966.90,700.20 927.20,547.54 788.14,547.54" fill="#dcdcdc" fill-opacity="1" stroke="#ffffff" stroke-width="1.5"/><polygon points="925.85,1106.17 910.96,1190.98 787.17,1190.98 787.17,1106.17" fill="#dcdcdc" fill-opacity="1" stroke="#ffffff" stroke-width="1.5"/><polygon points="787.17,1190.98 910.96,1190.98 893.29,1275.75 786.94,1275.74" fill="#dcdcdc" fill-opacity="1" stroke="#ffffff" stroke-width="1.5"/><polygon points="1323.28,1317.98 1323.28,1426.68 1413.26,1426.68 1413.26,1317.98" fill="#dcdcdc" fill-opacity="1" stroke="#ffffff" stroke-width="1.5"/><polygon points="1413.26,1317.88 1413.26,1426.58 1503.24,1426.58 1503.24,1317.88" fill="#dcdcdc" fill-opacity="1" stroke="#ffffff" stroke-width="1.5"/><polygon points="1565.41,1725.05 1565.41,1755.05 1595.41,1755.05 1595.41,1725.05" fill="#73c7a4" fill-opacity="1" stroke="#ffffff" stroke-width="1.5"/><polygon points="1441.41,1224.22 1506.77,1224.22 1506.77,1188.42 1589.37,1188.42 1589.37,1110.56 1441.41,1110.56" fill="#dcdcdc" fill-opacity="1" stroke="#ffffff" stroke-width="1.5"/><polygon points="1441.41,1036.28 1441.41,1110.55 1589.33,1110.55 1589.33,1036.28" fill="#dcdcdc" fill-opacity="1" stroke="#ffffff" stroke-width="1.5"/><polygon points="1674.24,335.38 1674.24,1481.89 272.24,1481.89 272.24,314.10 1674.24,314.10 1674.24,335.38 1675.74,335.38 1675.74,312.60 270.74,312.60 270.74,1483.39 1675.74,1483.39 1675.74,335.38" fill="#a1a1a1" fill-opacity="1" stroke="#a1a1a1" stroke-width="1.5"/><polygon points="956.28,772.46 956.28,1021.26 1141.42,1021.26 1141.42,772.46" fill="#e7d3e7" fill-opacity="1" stroke="#ffffff" stroke-width="1.5"/></g>
  <g font-family="Arial, 'Noto Sans KR', sans-serif" font-size="12" font-weight="600" fill="#303633" stroke="#fff" stroke-width="3" paint-order="stroke" stroke-linejoin="round"><text x="1053.4561872181519" y="1186.8414781483903" text-anchor="middle" dominant-baseline="central">패밀리 스튜디오</text><text x="729.0026144280189" y="1372.2863873414396" text-anchor="middle" dominant-baseline="central">쇼콜라</text><text x="955.4906537629362" y="1372.381335067345" text-anchor="middle" dominant-baseline="central">클리클루</text><text x="813.804166321428" y="1372.381335067345" text-anchor="middle" dominant-baseline="central">블루독 베이비</text><text x="1139.1112548884225" y="1370.3835078937473" text-anchor="middle" dominant-baseline="central">스토케</text><text x="1243.0246377988828" y="1169.301661700896" text-anchor="middle" dominant-baseline="central">젤리멜로</text><text x="1344.1877722784602" y="1229.51143150289" text-anchor="middle" dominant-baseline="central">타미힐피거키즈</text><text x="1344.1877722784602" y="1129.41935996969" text-anchor="middle" dominant-baseline="central">프렌치캣&amp; 티파니</text><text x="1329.4775752502578" y="902.017713872691" text-anchor="middle" dominant-baseline="central">캉골 키즈</text><text x="1331.5542349210855" y="990.0766402689036" text-anchor="middle" dominant-baseline="central">베네통키즈</text><text x="1330.582181458145" y="815.7048967616228" text-anchor="middle" dominant-baseline="central">마리떼키즈</text><text x="1512.6898336575814" y="1151.5191375433815" text-anchor="middle" dominant-baseline="central">디애니멀스 옵저버토리</text><text x="1515.39007330385" y="993.4946274974246" text-anchor="middle" dominant-baseline="central">매직에디션</text><text x="1515.39007330385" y="889.201220321251" text-anchor="middle" dominant-baseline="central">캐리마켓</text><text x="1510.1925681063444" y="728.7546704191102" text-anchor="middle" dominant-baseline="central">뉴발란스 키즈</text><text x="1516.9100611439471" y="573.0005672450786" text-anchor="middle" dominant-baseline="central">랄프로렌칠드런</text><text x="453" y="1750" text-anchor="middle" dominant-baseline="central">달구벌대로</text><text x="806.7898999241731" y="405.4135250455263" text-anchor="middle" dominant-baseline="central">코오롱 스포츠</text><text x="913.2620549444014" y="405.150453191073" text-anchor="middle" dominant-baseline="central">디스커버리</text><text x="1019.575164794922" y="405.34870237813243" text-anchor="middle" dominant-baseline="central">노스페이스</text><text x="1126.6235812136792" y="404.9098973919441" text-anchor="middle" dominant-baseline="central">네파</text><text x="1233.7710571289049" y="405.3684692382815" text-anchor="middle" dominant-baseline="central">내셔널 지오그래픽</text><text x="1340.3699706694126" y="404.96498080323283" text-anchor="middle" dominant-baseline="central">노르디스크</text><text x="654.9205214091425" y="405.36847024901704" text-anchor="middle" dominant-baseline="central">메이린 의원 (피부/성형 클리닉)</text><text x="1036.7670771708392" y="619.5810320117968" text-anchor="middle" dominant-baseline="central">스노우 피크</text><text x="1112.0559404981234" y="621.8754066361271" text-anchor="middle" dominant-baseline="central">POP-UP STUDIO</text><text x="1312.130756626043" y="589.2737738347779" text-anchor="middle" dominant-baseline="central">아이더</text><text x="1314.2104246388967" y="676.3935634446531" text-anchor="middle" dominant-baseline="central">살로몬</text><text x="598.0650632821071" y="712.0511253574945" text-anchor="middle" dominant-baseline="central">삼성 메가스토어</text><text x="597.985953377937" y="1073.4329040596208" text-anchor="middle" dominant-baseline="central">LG메가스토어</text><text x="845.5755615234375" y="816.0568756446966" text-anchor="middle" dominant-baseline="central">젝시믹스</text><text x="845.575562135913" y="898.3183031070956" text-anchor="middle" dominant-baseline="central">아레나</text><text x="845.5755615234375" y="968.693878173828" text-anchor="middle" dominant-baseline="central">크록스</text><text x="848.9532247889674" y="1233.3614444194004" text-anchor="middle" dominant-baseline="central">무냐무냐</text><text x="862.0752977056884" y="625.4131585360631" text-anchor="middle" dominant-baseline="central">K2</text><text x="851.4870180960484" y="1148.5722645881508" text-anchor="middle" dominant-baseline="central">베네베네</text><text x="1278.347290039065" y="1372.339721679685" text-anchor="middle" dominant-baseline="central">내셔널 지오그래픽 키즈</text><text x="1368.2668291710886" y="1372.32808193196" text-anchor="middle" dominant-baseline="central">MLB 키즈</text><text x="1458.2491900109387" y="1372.1030715581296" text-anchor="middle" dominant-baseline="central">미키하우스</text><text x="1048.8499755859389" y="896.8584289550795" text-anchor="middle" dominant-baseline="central">모카 플러스</text><text x="1515.370736312445" y="1073.4113848480165" text-anchor="middle" dominant-baseline="central">리틀그라운드</text><text x="313.31374244368203" y="1318.63900496383" text-anchor="middle" dominant-baseline="central">계단</text><text x="394.01080957064903" y="1318.63900496383" text-anchor="middle" dominant-baseline="central">음수대</text><text x="313.31374244368203" y="1410.081942662065" text-anchor="middle" dominant-baseline="central">엘리베이터</text><text x="541.037298099069" y="1417.89727845194" text-anchor="middle" dominant-baseline="central">화장실</text><text x="930.7335991742183" y="901.0462259513878" text-anchor="middle" dominant-baseline="central">에스컬레이터</text><text x="1580.7880420449642" y="1759.3545674477282" text-anchor="middle" dominant-baseline="central">2호선 반월당역</text><text x="455.42861700502203" y="1446.460875092745" text-anchor="middle" dominant-baseline="central">계단</text><text x="1637.247374471045" y="1448.10362136747" text-anchor="middle" dominant-baseline="central">계단</text><text x="1461.68637123629" y="439.310330010593" text-anchor="middle" dominant-baseline="central">엘리베이터</text><text x="1553.80552719096" y="388.83777943581504" text-anchor="middle" dominant-baseline="central">계단</text><text x="1168.951833718501" y="899.9649987585238" text-anchor="middle" dominant-baseline="central">에스컬레이터</text><text x="1527.8345824371008" y="1241.5565233177824" text-anchor="middle" dominant-baseline="central">유아휴게실</text><text x="650.531799316406" y="1372.286376953125" text-anchor="middle" dominant-baseline="central">압소바</text></g>
  <style>.managed-brand { fill:#9a5300; font-size:15px; font-weight:800; stroke:#fff7df; stroke-width:5; }</style>
  <text x="0" y="294.603454589844" font-family="Arial, 'Noto Sans KR', sans-serif" font-size="20" font-weight="700" fill="#1a1f1d">대구 · 6F</text>

</svg>
